<svg xmlns="http://www.w3.org/2000/svg" xmlns:xlink="http://www.w3.org/1999/xlink" width="1080" zoomAndPan="magnify" viewBox="0 0 810 809.999993" height="1080" preserveAspectRatio="xMidYMid meet" version="1.0"><defs><clipPath id="a21b74f5e6"><path d="M 157.546875 136 L 652.546875 136 L 652.546875 674 L 157.546875 674 Z M 157.546875 136 " clip-rule="nonzero"/></clipPath></defs><g clip-path="url(#a21b74f5e6)"><path fill="#000000" d="M 601.457031 554.328125 L 601.457031 501.882812 C 620.789062 498.085938 635.632812 480.835938 635.632812 460.132812 C 635.632812 459.789062 635.632812 459.789062 635.632812 459.441406 C 635.632812 459.441406 635.632812 459.097656 635.632812 459.097656 C 635.632812 459.097656 635.632812 458.753906 635.632812 458.753906 C 635.632812 458.753906 635.632812 458.40625 635.632812 458.40625 C 635.632812 458.40625 635.632812 458.0625 635.632812 458.0625 C 635.632812 457.71875 635.632812 457.71875 635.632812 457.71875 L 584.890625 314.183594 L 584.890625 281.75 C 584.890625 281.75 584.890625 281.40625 584.890625 281.40625 C 584.890625 281.40625 584.890625 281.058594 584.890625 281.058594 L 584.890625 247.59375 C 584.890625 247.59375 584.890625 247.246094 584.890625 247.246094 C 584.890625 247.246094 584.890625 246.902344 584.890625 246.902344 L 584.890625 144.773438 C 584.890625 139.941406 581.089844 136.144531 576.257812 136.144531 C 543.121094 136.144531 512.054688 150.984375 490.996094 176.171875 C 470.285156 151.671875 439.566406 136.144531 405.390625 136.144531 C 370.871094 136.144531 340.496094 151.671875 320.128906 176.171875 C 299.074219 150.984375 268.007812 136.144531 234.523438 136.144531 C 229.691406 136.144531 225.894531 139.941406 225.894531 144.773438 L 225.894531 314.875 C 225.894531 314.875 225.894531 315.21875 225.894531 315.21875 C 225.894531 315.21875 225.894531 315.5625 225.894531 315.5625 L 225.894531 443.226562 C 225.894531 457.371094 214.5 468.757812 200.347656 468.757812 C 195.515625 468.757812 191.71875 472.554688 191.71875 477.382812 L 191.71875 630.921875 C 191.71875 630.921875 191.71875 631.269531 191.71875 631.269531 C 191.375 645.070312 179.984375 656.457031 166.175781 656.457031 C 161.34375 656.457031 157.546875 660.25 157.546875 665.082031 C 157.546875 669.914062 161.34375 673.707031 166.175781 673.707031 L 336.699219 673.707031 C 350.507812 673.707031 362.933594 667.152344 370.871094 656.457031 C 378.8125 666.808594 390.894531 673.707031 405.046875 673.707031 C 405.390625 673.707031 405.390625 673.707031 405.734375 673.707031 L 592.484375 673.707031 C 592.484375 673.707031 592.484375 673.707031 592.828125 673.707031 C 625.621094 673.707031 652.546875 646.796875 652.546875 614.015625 C 652.546875 583.308594 630.109375 558.46875 601.457031 554.328125 Z M 576.257812 621.953125 C 575.914062 621.953125 575.914062 621.953125 575.570312 621.953125 L 405.390625 621.953125 C 405.046875 621.953125 405.046875 621.953125 404.699219 621.953125 C 390.894531 621.609375 379.5 610.222656 379.5 596.421875 C 386.75 601.941406 395.378906 605.046875 405.046875 605.046875 C 405.390625 605.046875 405.390625 605.046875 405.734375 605.046875 L 489.960938 605.046875 C 489.960938 605.046875 490.308594 605.046875 490.308594 605.046875 C 490.652344 605.046875 490.996094 605.046875 490.996094 605.046875 L 523.789062 605.046875 C 523.789062 605.046875 524.136719 605.046875 524.136719 605.046875 C 524.480469 605.046875 524.824219 605.046875 524.824219 605.046875 L 557.617188 605.046875 C 557.617188 605.046875 557.964844 605.046875 557.964844 605.046875 C 574.53125 605.046875 588.6875 595.730469 595.933594 581.929688 C 599.042969 586.070312 600.765625 591.246094 600.765625 596.765625 C 601.457031 610.222656 590.066406 621.609375 576.257812 621.953125 Z M 405.390625 187.210938 C 435.421875 187.210938 460.277344 209.636719 464.417969 238.277344 L 447.160156 238.277344 C 443.363281 218.953125 426.101562 204.117188 405.390625 204.117188 C 384.679688 204.117188 367.421875 218.609375 363.625 238.277344 L 346.363281 238.277344 C 350.160156 209.636719 375.359375 187.210938 405.390625 187.210938 Z M 405.390625 221.371094 C 416.4375 221.371094 426.101562 228.617188 429.554688 238.277344 L 381.226562 238.277344 C 384.679688 228.617188 394 221.371094 405.390625 221.371094 Z M 337.042969 255.527344 L 566.25 255.527344 L 566.25 272.78125 L 243.152344 272.78125 L 243.152344 255.527344 Z M 396.761719 442.878906 C 396.761719 457.027344 385.371094 468.414062 371.21875 468.414062 C 376.742188 461.167969 379.847656 452.542969 379.847656 442.878906 L 379.847656 323.5 L 396.761719 323.5 Z M 405.390625 570.886719 C 405.734375 570.886719 405.734375 570.886719 406.082031 570.886719 L 514.816406 570.886719 C 511.363281 580.550781 502.390625 587.449219 491.6875 587.792969 L 405.390625 587.792969 C 405.390625 587.792969 405.046875 587.792969 405.046875 587.792969 C 391.238281 587.449219 379.847656 576.0625 379.847656 562.261719 C 386.75 567.78125 395.726562 570.886719 405.390625 570.886719 Z M 584.199219 561.917969 C 584.199219 561.917969 584.199219 562.261719 584.199219 562.261719 C 584.199219 562.261719 584.199219 562.605469 584.199219 562.605469 C 584.199219 576.410156 572.808594 587.792969 559 587.792969 C 559 587.792969 558.65625 587.792969 558.65625 587.792969 C 563.832031 580.550781 567.285156 571.921875 567.285156 562.261719 C 567.285156 551.222656 574.535156 541.558594 584.199219 538.109375 Z M 584.199219 503.261719 L 584.199219 520.511719 C 564.867188 524.308594 550.023438 541.558594 550.023438 562.261719 C 550.023438 576.0625 538.980469 587.449219 525.171875 587.792969 L 524.480469 587.792969 C 529.660156 580.550781 533.109375 571.921875 533.109375 562.261719 C 533.109375 532.246094 555.546875 507.402344 584.199219 503.261719 Z M 294.242188 323.5 L 294.242188 442.878906 C 294.242188 457.027344 282.847656 468.414062 268.695312 468.414062 C 274.21875 461.167969 277.324219 452.542969 277.324219 442.878906 L 277.324219 323.5 Z M 328.414062 323.5 L 328.414062 442.878906 C 328.414062 457.027344 317.023438 468.414062 302.871094 468.414062 C 308.394531 461.167969 311.5 452.542969 311.5 442.878906 L 311.5 323.5 Z M 337.042969 468.757812 C 342.566406 461.511719 345.671875 452.886719 345.671875 443.226562 L 345.671875 323.5 L 362.585938 323.5 L 362.585938 442.878906 C 362.585938 457.027344 351.195312 468.757812 337.042969 468.757812 Z M 405.390625 306.59375 C 405.046875 306.59375 405.046875 306.59375 405.390625 306.59375 L 243.496094 306.59375 L 243.496094 289.6875 L 567.628906 289.6875 L 567.628906 306.59375 Z M 567.285156 238.277344 L 551.75 238.277344 C 554.167969 231.03125 560.035156 225.164062 567.285156 222.75 Z M 567.285156 205.152344 C 550.714844 208.601562 537.597656 221.714844 534.144531 238.277344 L 516.886719 238.277344 C 520.683594 212.054688 541.394531 191.351562 567.285156 187.902344 Z M 243.152344 238.277344 L 243.152344 222.75 C 250.402344 225.164062 256.269531 231.03125 258.6875 238.277344 Z M 276.289062 238.277344 C 272.839844 221.714844 259.722656 208.601562 243.152344 205.152344 L 243.152344 187.902344 C 269.386719 191.695312 290.097656 212.398438 293.550781 238.277344 Z M 243.152344 442.878906 L 243.152344 323.5 L 260.066406 323.5 L 260.066406 442.878906 C 260.066406 457.027344 248.675781 468.414062 234.523438 468.414062 C 240.046875 461.511719 243.152344 452.542969 243.152344 442.878906 Z M 234.523438 656.109375 C 240.046875 648.867188 243.152344 640.238281 243.152344 630.578125 C 243.152344 630.234375 243.152344 630.234375 243.152344 629.890625 L 243.152344 486.011719 L 260.066406 486.011719 L 260.066406 630.925781 C 260.066406 631.269531 260.066406 631.269531 260.066406 631.613281 C 260.066406 645.070312 248.675781 656.109375 234.523438 656.109375 Z M 268.695312 656.109375 C 274.21875 648.867188 277.324219 640.238281 277.324219 630.578125 C 277.324219 630.234375 277.324219 629.890625 277.324219 629.542969 L 277.324219 485.664062 L 294.242188 485.664062 L 294.242188 630.578125 C 294.242188 630.578125 294.242188 630.925781 294.242188 630.925781 C 294.242188 644.726562 282.847656 656.109375 268.695312 656.109375 Z M 302.871094 656.109375 C 308.394531 648.867188 311.5 640.238281 311.5 630.578125 C 311.5 630.234375 311.5 630.234375 311.5 629.890625 L 311.5 485.664062 L 328.414062 485.664062 L 328.414062 630.578125 C 328.414062 644.726562 317.023438 656.109375 302.871094 656.109375 Z M 592.828125 485.664062 C 553.476562 485.664062 520.683594 515.683594 516.542969 553.980469 L 405.046875 553.980469 C 405.046875 553.980469 404.699219 553.980469 404.699219 553.980469 C 390.894531 553.636719 379.5 542.25 379.5 528.449219 C 379.5 528.449219 379.5 528.105469 379.5 528.105469 L 379.5 484.976562 C 398.832031 481.179688 413.675781 463.929688 413.675781 443.226562 L 413.675781 323.5 L 569.699219 323.5 L 618.371094 461.167969 C 617.683594 474.96875 606.636719 485.664062 592.828125 485.664062 Z M 567.285156 153.742188 L 567.285156 170.996094 C 542.429688 173.753906 521.375 188.246094 509.292969 208.949219 C 506.875 202.738281 504.113281 196.527344 500.664062 191.007812 C 516.542969 169.269531 540.703125 155.8125 567.285156 153.742188 Z M 405.390625 153.054688 C 454.40625 153.054688 494.449219 190.660156 498.9375 238.277344 L 481.675781 238.277344 C 477.191406 199.976562 444.742188 170.304688 405.390625 170.304688 C 366.039062 170.304688 333.246094 200.324219 329.105469 238.621094 L 311.84375 238.621094 C 315.988281 190.660156 356.375 153.054688 405.390625 153.054688 Z M 309.773438 190.660156 C 306.320312 196.527344 303.558594 202.394531 301.144531 208.601562 C 289.0625 187.902344 268.007812 173.410156 243.152344 170.648438 L 243.152344 153.398438 C 269.730469 155.8125 293.894531 169.269531 309.773438 190.660156 Z M 208.980469 630.578125 C 208.980469 630.234375 208.980469 630.234375 208.980469 629.890625 L 208.980469 486.011719 L 225.894531 486.011719 L 225.894531 630.925781 C 225.894531 630.925781 225.894531 631.269531 225.894531 631.269531 C 225.546875 645.070312 214.15625 656.457031 200.347656 656.457031 C 205.871094 648.867188 208.980469 640.238281 208.980469 630.578125 Z M 337.042969 656.109375 C 342.566406 648.867188 345.671875 640.238281 345.671875 630.578125 C 345.671875 630.578125 345.671875 630.234375 345.671875 630.234375 L 345.671875 485.664062 L 362.585938 485.664062 L 362.585938 630.578125 C 362.585938 644.726562 350.851562 656.109375 337.042969 656.109375 Z M 592.828125 656.109375 L 405.390625 656.109375 C 405.390625 656.109375 405.046875 656.109375 405.046875 656.109375 C 391.238281 655.765625 379.847656 644.378906 379.847656 630.578125 C 387.097656 636.097656 395.726562 639.203125 405.390625 639.203125 C 405.734375 639.203125 406.082031 639.203125 406.082031 639.203125 L 574.878906 639.203125 C 575.222656 639.203125 575.570312 639.203125 575.570312 639.203125 C 599.042969 639.203125 618.027344 620.226562 618.371094 596.765625 C 618.371094 596.765625 618.371094 596.765625 618.371094 596.421875 C 618.371094 589.175781 616.644531 582.273438 613.195312 576.0625 C 626.3125 583.308594 635.285156 597.457031 635.285156 613.328125 C 635.285156 636.789062 616.300781 656.109375 592.828125 656.109375 Z M 592.828125 656.109375 " fill-opacity="1" fill-rule="nonzero"/></g><path fill="#000000" d="M 567.285156 374.910156 L 538.289062 374.910156 C 537.941406 374.910156 537.941406 374.910156 537.597656 374.910156 C 537.253906 374.910156 537.253906 374.910156 536.90625 374.910156 L 498.9375 374.910156 C 494.105469 374.910156 490.308594 371.113281 490.308594 366.285156 C 490.308594 361.453125 486.511719 357.65625 481.675781 357.65625 C 476.84375 357.65625 473.046875 361.453125 473.046875 366.285156 C 473.046875 380.429688 484.4375 391.816406 498.59375 391.816406 L 516.195312 391.816406 C 515.851562 393.195312 515.851562 394.578125 515.851562 395.957031 C 515.851562 407.6875 525.515625 417.347656 537.253906 417.347656 C 548.988281 417.347656 558.65625 407.6875 558.65625 395.957031 C 558.65625 394.578125 558.65625 393.195312 558.308594 391.816406 L 567.285156 391.816406 C 572.117188 391.816406 575.914062 388.019531 575.914062 383.191406 C 575.914062 378.703125 572.117188 374.910156 567.285156 374.910156 Z M 541.742188 395.957031 C 541.742188 398.371094 539.667969 400.097656 537.597656 400.097656 C 535.183594 400.097656 533.457031 398.027344 533.457031 395.957031 C 533.457031 393.542969 535.183594 391.816406 537.597656 391.816406 L 537.941406 391.816406 C 540.015625 391.816406 541.742188 393.886719 541.742188 395.957031 Z M 541.742188 395.957031 " fill-opacity="1" fill-rule="nonzero"/></svg>